Coordinates
version=1
nRows=10
nColumns=33
inDegrees=yes

Units are S.I. units (second, meters, Newtons, ...)
Angles are in degrees.

endheader
time	ground_thorax_rot_x	ground_thorax_rot_y	ground_thorax_rot_z	ground_thorax_tx	ground_thorax_ty	ground_thorax_tz	clav_prot_r	clav_elev_r	scapula_abduction_r	scapula_elevation_r	scapula_upward_rot_r	scapula_winging_r	shoulder_elv_r	plane_of_elev_r	axial_rot_r	elbow_flexion_r	pro_sup_r	wrist_flex_r	wrist_dev_r	clav_prot_l	clav_elev_l	scapula_abduction_l	scapula_elevation_l	scapula_upward_rot_l	scapula_winging_l	shoulder_elv_l	plane_of_elev_l	axial_rot_l	elbow_flexion_l	pro_sup_l	wrist_flex_l	wrist_dev_l
      6.23000000	     39.51211357	     11.31728057	     15.51279468	   -256.89382936	    837.49623603	      9.12022859	     15.32045078	     38.07912068	     38.45022187	     45.00000000	    -45.00000000	   3509.57283049	  -3531.28966382	     26.98333031	   -179.99999979	   1440.34669976	   -159.04945995	     21.56377066	      9.66603624	      9.94383447	    -45.00000000	    -36.35551489	     45.00000000	    -45.00000000	  -2418.01537925	   -644.61611564	     20.87419319	    -34.34428058	   1809.61198955	     36.74527626	      5.00761059	    -23.70386645
      6.24000000	     39.47493888	     11.39233127	     15.62725388	   -257.14657426	    836.64762543	      9.06237262	     15.18742387	     38.18694756	     38.32129156	     45.00000000	    -45.00000000	   3509.65104006	  -3531.33506053	     26.99673114	   -179.99999979	   1440.51729176	   -158.99452985	     21.64976578	      9.85130948	      9.97206593	    -45.00000000	    -36.24840399	     45.00000000	    -45.00000000	  -2418.00684254	   -644.68661195	     20.76498028	    -34.71248862	   1809.74139559	     36.00070783	      5.15274107	    -23.48993870
      6.25000000	     39.45585562	     11.45215034	     15.67379999	   -257.19887679	    835.78219240	      9.02104100	     15.18647072	     37.97857258	     38.14945064	     45.00000000	    -44.81253964	   3510.00977264	  -3531.30156311	     26.80539346	   -179.99999979	   1440.64043857	   -159.13236320	     21.59796025	      9.73306919	      9.84210861	    -45.00000000	    -36.34513798	     45.00000000	    -45.00000000	  -2418.02020215	   -644.79394115	     20.64046138	    -34.87417061	   1809.90236475	     35.40485260	      5.27977132	    -23.55588792
      6.26000000	     39.38647433	     11.55989408	     15.91431183	   -257.08419506	    834.92898820	      8.99938957	     15.19131830	     38.02671186	     38.07032245	     45.00000000	    -44.88920875	   3509.95728048	  -3531.40879892	     26.88381131	   -179.99999979	   1440.70931433	   -159.34725055	     21.59605500	      9.78637258	      9.88896237	    -45.00000000	    -36.13693464	     45.00000000	    -45.00000000	  -2418.07845538	   -644.90965244	     20.60195982	    -34.88985294	   1809.60429845	     34.79148236	      5.34860102	    -23.43017607
      6.27000000	     39.32558580	     11.63820697	     16.07608401	   -256.84258535	    834.12855101	      8.99932666	     15.26427006	     37.88182930	     37.96696382	     45.00000000	    -45.00000000	   3510.08003010	  -3531.37427265	     26.79921863	   -179.99999979	   1440.56775727	   -159.68938917	     21.58648184	      9.73129658	      9.87632841	    -45.00000000	    -36.09917463	     45.00000000	    -45.00000000	  -2418.13004118	   -645.00149545	     20.60030650	    -34.86613561	   1809.49170822	     34.14953906	      5.45263425	    -23.39873707
      6.28000000	     39.25762218	     11.67901371	     16.17845531	   -256.51485697	    833.39709212	      9.01696682	     15.22491405	     37.95627948	     37.99388473	     45.00000000	    -45.00000000	   3510.05947883	  -3531.47581606	     26.86351471	   -179.99999979	   1440.55781692	   -160.06995040	     21.57151647	      9.78906350	      9.88103321	    -45.00000000	    -36.05415661	     45.00000000	    -45.00000000	  -2418.19856015	   -645.08592386	     20.63001065	    -34.75477021	   1809.44470670	     33.45971821	      5.49613988	    -23.32670885
      6.29000000	     39.19154171	     11.63975853	     16.30903846	   -256.14648825	    832.75706944	      9.04747517	     15.26546122	     37.90482079	     37.90209490	     45.00000000	    -45.00000000	   3510.12698035	  -3531.51947578	     26.78110791	   -179.99999979	   1440.55409925	   -160.48487435	     21.55568494	      9.84253001	      9.87045135	    -45.00000000	    -36.01441276	     45.00000000	    -45.00000000	  -2418.24600433	   -645.15674555	     20.63543180	    -34.63288249	   1809.38587788	     32.77106572	      5.56190847	    -23.27551629
      6.30000000	     39.08797450	     11.61901441	     16.40841742	   -255.77280165	    832.20691989	      9.08345173	     15.23900490	     37.93909291	     37.90894008	     45.00000000	    -45.00000000	   3510.14999788	  -3531.59073251	     26.82091514	   -179.99999979	   1440.53366328	   -160.90347511	     21.53671097	      9.91640819	      9.86740294	    -45.00000000	    -35.98919558	     45.00000000	    -45.00000000	  -2418.32145472	   -645.21397733	     20.68791487	    -34.50842375	   1809.31931753	     32.10693114	      5.59973422	    -23.20366085
      6.31000000	     38.97973188	     11.57064631	     16.50414405	   -255.42849951	    831.75128422	      9.11807830	     15.25373342	     37.91052710	     37.87507860	     45.00000000	    -45.00000000	   3510.20414941	  -3531.61167963	     26.78795976	   -179.99999979	   1440.50550691	   -161.30481404	     21.52629839	     10.00497516	      9.85599243	    -45.00000000	    -35.97552257	     45.00000000	    -45.00000000	  -2418.38443392	   -645.24642880	     20.72690408	    -34.38442267	   1809.26838866	     31.49764332	      5.63144077	    -23.14174604
      6.32000000	     38.87951743	     11.48977992	     16.55423750	   -255.13372634	    831.38351759	      9.14561379	     15.22504421	     37.93737516	     37.84920232	     45.00000000	    -45.00000000	   3510.21760126	  -3531.66281841	     26.80974588	   -179.99999979	   1440.46675215	   -161.68499859	     21.51220124	     10.09970679	      9.85169519	    -45.00000000	    -35.95317056	     45.00000000	    -45.00000000	  -2418.43934806	   -645.28186060	     20.78396555	    -34.27871252	   1809.21602650	     30.95805629	      5.64964963	    -23.07991516
